<svg xmlns="http://www.w3.org/2000/svg" version="1.1" xmlns:xlink="http://www.w3.org/1999/xlink" xmlns:svgjs="http://svgjs.dev/svgjs" width="1440" height="250" preserveAspectRatio="none" viewBox="0 0 1440 250"><g mask="url(&quot;#SvgjsMask1000&quot;)" fill="none"><rect width="1440" height="250" x="0" y="0" fill="#0e2a47"></rect><path d="M43 250L293 0L636.5 0L386.5 250z" fill="url(&quot;#SvgjsLinearGradient1001&quot;)"></path><path d="M244.60000000000002 250L494.6 0L712.1 0L462.1 250z" fill="url(&quot;#SvgjsLinearGradient1001&quot;)"></path><path d="M511.20000000000005 250L761.2 0L884.2 0L634.2 250z" fill="url(&quot;#SvgjsLinearGradient1001&quot;)"></path><path d="M737.8000000000001 250L987.8000000000001 0L1034.3000000000002 0L784.3000000000001 250z" fill="url(&quot;#SvgjsLinearGradient1001&quot;)"></path><path d="M1432 250L1182 0L981 0L1231 250z" fill="url(&quot;#SvgjsLinearGradient1002&quot;)"></path><path d="M1179.4 250L929.4000000000001 0L810.9000000000001 0L1060.9 250z" fill="url(&quot;#SvgjsLinearGradient1002&quot;)"></path><path d="M938.8 250L688.8 0L532.8 0L782.8 250z" fill="url(&quot;#SvgjsLinearGradient1002&quot;)"></path><path d="M702.1999999999999 250L452.19999999999993 0L300.69999999999993 0L550.6999999999999 250z" fill="url(&quot;#SvgjsLinearGradient1002&quot;)"></path><path d="M1294.6473092811282 250L1440 104.64730928112817L1440 250z" fill="url(&quot;#SvgjsLinearGradient1001&quot;)"></path><path d="M0 250L145.35269071887183 250L 0 104.64730928112817z" fill="url(&quot;#SvgjsLinearGradient1002&quot;)"></path></g><defs><mask id="SvgjsMask1000"><rect width="1440" height="250" fill="#ffffff"></rect></mask><linearGradient x1="0%" y1="100%" x2="100%" y2="0%" id="SvgjsLinearGradient1001"><stop stop-color="rgba(15, 70, 185, 0.2)" offset="0"></stop><stop stop-opacity="0" stop-color="rgba(15, 70, 185, 0.2)" offset="0.66"></stop></linearGradient><linearGradient x1="100%" y1="100%" x2="0%" y2="0%" id="SvgjsLinearGradient1002"><stop stop-color="rgba(15, 70, 185, 0.2)" offset="0"></stop><stop stop-opacity="0" stop-color="rgba(15, 70, 185, 0.2)" offset="0.66"></stop></linearGradient></defs></svg>